<svg width="16" height="25" viewBox="0 0 16 25" fill="none" xmlns="http://www.w3.org/2000/svg">
<path d="M13.6 0.998291H2.4C1.075 0.998291 0 2.0061 0 3.24829V22.7483C0 23.9905 1.075 24.9983 2.4 24.9983H13.6C14.925 24.9983 16 23.9905 16 22.7483V3.24829C16 2.0061 14.925 0.998291 13.6 0.998291ZM8 23.4983C7.115 23.4983 6.4 22.828 6.4 21.9983C6.4 21.1686 7.115 20.4983 8 20.4983C8.885 20.4983 9.6 21.1686 9.6 21.9983C9.6 22.828 8.885 23.4983 8 23.4983ZM13.6 18.4358C13.6 18.7452 13.33 18.9983 13 18.9983H3C2.67 18.9983 2.4 18.7452 2.4 18.4358V3.81079C2.4 3.50142 2.67 3.24829 3 3.24829H13C13.33 3.24829 13.6 3.50142 13.6 3.81079V18.4358Z" fill="#828282"/>
</svg>
