<svg width="36" height="40" viewBox="0 0 36 40" fill="none" xmlns="http://www.w3.org/2000/svg">
<path d="M34.6922 1.92268L27.3799 0.0477188C26.5853 -0.155402 25.7697 0.305526 25.4463 1.13363L22.0714 9.88345C21.7761 10.6491 21.9729 11.5475 22.5565 12.0709L26.8174 15.9458C24.2862 21.9379 19.8636 26.9222 14.3583 29.7893L10.8708 25.055C10.3927 24.4066 9.59116 24.1878 8.90211 24.516L1.02727 28.2659C0.274946 28.6331 -0.13989 29.5393 0.042919 30.4221L1.73038 38.5469C1.90616 39.3906 2.58115 40 3.37566 40C21.3823 40 36 23.7894 36 3.75077C36 2.87578 35.4586 2.11799 34.6922 1.92268Z" fill="white"/>
</svg>
