<svg width="21" height="25" viewBox="0 0 21 25" fill="none" xmlns="http://www.w3.org/2000/svg">
<path d="M18.5114 3.33259C17.9657 2.78416 15.7571 1.03572 10.8329 1.01228C10.8329 1.01228 5.02779 0.632595 2.20045 3.46384C0.62779 5.17947 0.073493 7.69665 0.0133367 10.8138C-0.0468195 13.931 -0.119866 19.7716 5.04068 21.356H5.04498L5.04068 23.7748C5.04068 23.7748 5.00631 24.7545 5.59927 24.9513C6.31256 25.1951 6.73365 24.4498 7.41685 23.6482C7.79068 23.2076 8.30631 22.5607 8.69732 22.0685C12.2294 22.392 14.9407 21.6513 15.2501 21.5435C15.9633 21.2904 19.9981 20.7279 20.6512 14.8873C21.3301 8.85915 20.3247 5.05291 18.5114 3.33259ZM19.1087 14.4467C18.5544 19.3216 15.2844 19.631 14.6829 19.842C14.4251 19.931 12.0403 20.5779 9.04537 20.367C9.04537 20.367 6.81099 23.306 6.1149 24.0701C5.88717 24.3185 5.63795 24.2951 5.64224 23.8029C5.64224 23.4795 5.65943 19.7857 5.65943 19.7857C5.65513 19.7857 5.65513 19.7857 5.65943 19.7857C1.28521 18.4638 1.54302 13.4904 1.59029 10.8888C1.63756 8.28728 2.08873 6.15447 3.42076 4.72009C5.81412 2.35291 10.7426 2.70447 10.7426 2.70447C14.9063 2.72322 16.9001 4.09197 17.3641 4.55134C18.8981 5.98572 19.6801 9.41697 19.1087 14.4467ZM13.136 10.6592C13.1532 11.0623 12.5989 11.0904 12.5817 10.6873C12.5344 9.65603 12.0919 9.15447 11.1809 9.09822C10.8114 9.07478 10.8458 8.47009 11.211 8.49353C12.4098 8.56384 13.0758 9.31384 13.136 10.6592ZM14.0083 11.1888C14.0512 9.20134 12.9126 7.64509 10.7512 7.47165C10.386 7.44353 10.4247 6.83884 10.7899 6.86697C13.2821 7.06384 14.6098 8.93415 14.5626 11.2029C14.5583 11.606 13.9997 11.5873 14.0083 11.1888ZM16.0278 11.817C16.0321 12.2201 15.4735 12.2248 15.4735 11.8217C15.4477 8.00134 13.1145 5.92009 10.2829 5.89666C9.91763 5.89197 9.91763 5.29197 10.2829 5.29197C13.4497 5.31541 15.9977 7.70134 16.0278 11.817ZM15.5422 16.4154V16.4248C15.0782 17.3154 14.2102 18.2998 13.3165 17.9857L13.3079 17.9716C12.4012 17.6951 10.2657 16.4951 8.91646 15.3232C8.22037 14.7232 7.58443 14.0154 7.09459 13.3357C6.65201 12.731 6.20513 12.0138 5.77115 11.1513C4.85592 9.34665 4.65396 8.5404 4.65396 8.5404C4.36607 7.5654 5.26412 6.61853 6.08482 6.11228H6.09342C6.48873 5.88728 6.86685 5.96228 7.12037 6.29509C7.12037 6.29509 7.65318 6.98884 7.88092 7.33103C8.09576 7.64978 8.38365 8.16072 8.53404 8.44665C8.79615 8.95759 8.63287 9.4779 8.37506 9.69353L7.85943 10.1435C7.59732 10.3732 7.6317 10.7998 7.6317 10.7998C7.6317 10.7998 8.39654 13.9545 11.254 14.7513C11.254 14.7513 11.645 14.7888 11.8555 14.5029L12.268 13.9404C12.4657 13.6592 12.9426 13.481 13.411 13.767C14.0426 14.156 14.8462 14.7607 15.379 15.3091C15.6797 15.5763 15.7485 15.9841 15.5422 16.4154Z" fill="#828282"/>
</svg>
