<svg width="22" height="21" viewBox="0 0 22 21" fill="none" xmlns="http://www.w3.org/2000/svg">
<path d="M20.8558 12.5531C20.9982 11.8969 21.0866 11.1984 21.0866 10.5C21.0866 5.17969 16.5737 0.876563 11.0049 0.876563C10.2732 0.876563 9.54643 0.95625 8.85402 1.09688C7.92098 0.407813 6.76205 0 5.5 0C2.46518 0 0 2.35313 0 5.25C0 6.45469 0.427232 7.56094 1.1442 8.44687C1.00179 9.10312 0.913393 9.80156 0.913393 10.5C0.913393 15.8203 5.42634 20.1234 10.9951 20.1234C11.7268 20.1234 12.4536 20.0438 13.146 19.9031C14.079 20.5875 15.2379 20.9953 16.4951 20.9953C19.5299 20.9953 21.9951 18.6422 21.9951 15.7453C22 14.5453 21.5728 13.4391 20.8558 12.5531ZM11.2996 16.8422C8.07812 16.8422 5.38214 15.4734 5.38214 13.7953C5.38214 13.0453 5.82411 12.3609 6.8308 12.3609C8.36295 12.3609 8.50536 14.4656 11.1571 14.4656C12.4192 14.4656 13.2344 13.9312 13.2344 13.2328C13.2344 12.3562 12.4487 12.2203 11.1719 11.9203C8.10268 11.1984 5.38705 10.8891 5.38705 7.83281C5.38705 5.05781 8.26473 4.03125 10.7446 4.03125C13.4504 4.03125 16.1857 5.05781 16.1857 6.62812C16.1857 7.42031 15.6259 8.11875 14.6978 8.11875C13.308 8.11875 13.2638 6.54844 11.0147 6.54844C9.75268 6.54844 8.95223 6.87656 8.95223 7.60312C8.95223 8.53125 9.97366 8.625 12.3455 9.15C14.3786 9.58594 16.7996 10.4062 16.7996 12.7875C16.7996 15.5578 13.9955 16.8422 11.2996 16.8422Z" fill="#828282"/>
</svg>
